<?xml version="1.0" encoding="UTF-8" standalone="no"?>
<!-- Created with Inkscape (http://www.inkscape.org/) -->

<svg
   width="210mm"
   height="297mm"
   viewBox="0 0 210 297"
   version="1.1"
   id="svg5"
   inkscape:version="1.2.2 (732a01da63, 2022-12-09)"
   sodipodi:docname="items.svg"
   inkscape:export-filename="items.png"
   inkscape:export-xdpi="96"
   inkscape:export-ydpi="96"
   xmlns:inkscape="http://www.inkscape.org/namespaces/inkscape"
   xmlns:sodipodi="http://sodipodi.sourceforge.net/DTD/sodipodi-0.dtd"
   xmlns="http://www.w3.org/2000/svg"
   xmlns:svg="http://www.w3.org/2000/svg">
  <sodipodi:namedview
     id="namedview7"
     pagecolor="#ffffff"
     bordercolor="#000000"
     borderopacity="0.25"
     inkscape:showpageshadow="2"
     inkscape:pageopacity="0.0"
     inkscape:pagecheckerboard="0"
     inkscape:deskcolor="#d1d1d1"
     inkscape:document-units="mm"
     showgrid="true"
     showguides="false"
     inkscape:zoom="6.4413012"
     inkscape:cx="87.249452"
     inkscape:cy="331.45477"
     inkscape:window-width="2560"
     inkscape:window-height="1369"
     inkscape:window-x="3632"
     inkscape:window-y="247"
     inkscape:window-maximized="1"
     inkscape:current-layer="layer3">
    <inkscape:grid
       type="xygrid"
       id="grid131"
       spacingx="33.866667"
       spacingy="33.866667"
       originx="0"
       originy="0"
       color="#0099e5"
       opacity="1"
       empcolor="#0099e5"
       empopacity="1" />
    <inkscape:grid
       type="xygrid"
       id="grid133"
       spacingx="16.933333"
       spacingy="16.933333"
       color="#e50000"
       opacity="0.2"
       empcolor="#e50000"
       empopacity="0.2"
       empspacing="5" />
    <inkscape:grid
       type="xygrid"
       id="grid4251"
       spacingx="2.1166667"
       spacingy="2.1166667"
       originx="0"
       originy="0"
       color="#ee00f8"
       opacity="0.10196078"
       empcolor="#ee00f8"
       empopacity="0.10196078" />
    <sodipodi:guide
       position="0,297"
       orientation="0,793.70079"
       id="guide4981"
       inkscape:locked="false" />
    <sodipodi:guide
       position="210,297"
       orientation="1122.5197,0"
       id="guide4983"
       inkscape:locked="false" />
    <sodipodi:guide
       position="210,0"
       orientation="0,-793.70079"
       id="guide4985"
       inkscape:locked="false" />
    <sodipodi:guide
       position="0,0"
       orientation="-1122.5197,0"
       id="guide4987"
       inkscape:locked="false" />
    <inkscape:grid
       type="xygrid"
       id="grid24554"
       color="#002b40"
       opacity="0.05098039"
       empcolor="#002b40"
       empopacity="0.05098039"
       spacingx="1.0583333"
       spacingy="1.0583333" />
  </sodipodi:namedview>
  <defs
     id="defs2">
    <inkscape:perspective
       sodipodi:type="inkscape:persp3d"
       inkscape:vp_x="0 : 148.5 : 1"
       inkscape:vp_y="0 : 1000 : 0"
       inkscape:vp_z="210 : 148.5 : 1"
       inkscape:persp3d-origin="105 : 99 : 1"
       id="perspective25923" />
  </defs>
  <g
     inkscape:label="Layer 1"
     inkscape:groupmode="layer"
     id="layer1">
    <ellipse
       style="display:inline;fill:#000000;fill-opacity:0.5;stroke:#939393;stroke-width:0.185039;stroke-dasharray:none;stroke-opacity:0.112676"
       id="path27686-9"
       cx="16.933334"
       cy="28.621504"
       rx="12.606994"
       ry="3.1284964" />
    <path
       style="fill:#502d16;fill-opacity:1;stroke-width:0.303498"
       d="m 16.933333,10.583333 c 0,-8.4666659 2.116666,-7.4083331 2.116666,-7.4083331 0,0 2.116668,1.0583333 1.058334,1.0583333 -2.533664,0 -3.175,6.3499998 -3.175,6.3499998 z"
       id="path24681"
       sodipodi:nodetypes="ccsc" />
    <path
       style="fill:#aa0000;fill-opacity:1;stroke-width:0.254722"
       d="m 4.233333,16.255896 c 2e-7,-13.7327671 12.7,-6.8663837 12.7,-6.8663837 0,0 12.7,-6.8663834 12.7,6.8663837 -1e-6,17.656414 -12.7,12.751855 -12.7,12.751855 0,0 -12.6999998,4.904559 -12.7,-12.751855 z"
       id="path24619"
       sodipodi:nodetypes="ccscc" />
    <path
       style="fill:#bb1f1f;fill-opacity:1;stroke-width:0.243558"
       d="m 4.2333328,15.861275 c 0,-13.1013742 12.7000002,-6.4717627 12.7000002,-6.4717627 0,0 11.641666,-6.6296116 11.641666,6.4717627 -10e-7,16.844626 -11.641666,12.165565 -11.641666,12.165565 0,0 -12.7000002,4.679061 -12.7000002,-12.165565 z"
       id="path24619-3"
       sodipodi:nodetypes="ccscc" />
    <path
       style="fill:#ff8080;fill-opacity:1;stroke-width:0.311871"
       d="M 13.758333,9.5249997 9.5249997,10.583333 C 6.812907,11.261357 4.8111624,16.233362 6.4060885,11.641667 7.8765375,7.4083329 13.758333,9.5249997 13.758333,9.5249997 Z"
       id="path24741"
       sodipodi:nodetypes="cssc" />
  </g>
  <g
     inkscape:groupmode="layer"
     id="layer2"
     inkscape:label="Layer 2">
    <ellipse
       style="display:inline;fill:#000000;fill-opacity:0.5;stroke:#939393;stroke-width:0.185039;stroke-dasharray:none;stroke-opacity:0.11267605"
       id="path27686"
       cx="16.933332"
       cy="62.488171"
       rx="12.606994"
       ry="3.1284964" />
    <ellipse
       style="fill:#a05a2c;fill-opacity:1;stroke-width:0.317499"
       id="path24869-2"
       cx="16.933334"
       cy="42.333332"
       rx="12.699998"
       ry="3.1750002" />
    <ellipse
       style="fill:#87aade;fill-opacity:1;stroke-width:0.303982"
       id="path24869"
       cx="16.933334"
       cy="44.449997"
       rx="11.641665"
       ry="3.1750002" />
    <ellipse
       style="fill:#afc6e9;fill-opacity:1;stroke-width:0.264582"
       id="path24869-0"
       cx="16.933334"
       cy="44.979164"
       rx="10.583333"
       ry="2.6458337" />
    <path
       style="fill:#a05a2c;fill-opacity:1;stroke-width:0.264583"
       d="m 4.2333334,42.333333 c 0,21.166667 8.4666656,21.166665 8.4666656,21.166665 h 8.466667 c 0,0 8.466668,0 8.466668,-21.166666 -2.116669,4.233333 -23.2833346,4.233332 -25.4000006,1e-6 z"
       id="path25461"
       sodipodi:nodetypes="ccccc" />
    <path
       style="fill:#c87137;fill-opacity:1;stroke-width:0.257884"
       d="M 4.2333354,42.333333 C 4.2333354,62.441666 12.7,62.441664 12.7,62.441664 h 8.466665 c 0,0 8.466667,0 8.466667,-20.108332 -2.116669,4.021667 -23.2833306,4.021666 -25.3999966,1e-6 z"
       id="path25461-8"
       sodipodi:nodetypes="ccccc" />
  </g>
  <g
     inkscape:groupmode="layer"
     id="layer3"
     inkscape:label="Layer 3"
     style="display:inline">
    <ellipse
       style="display:inline;fill:#000000;fill-opacity:0.5;stroke:#939393;stroke-width:0.185039;stroke-dasharray:none;stroke-opacity:0.112676"
       id="path27686-0"
       cx="16.933332"
       cy="96.354836"
       rx="12.606994"
       ry="3.1284964" />
    <path
       style="fill:#c8beb7;fill-opacity:1;stroke-width:0.411486"
       d="m 7.3992191,92.254175 c 2.210429,-7.289377 1.481664,-3.047398 4.4449979,-9.142194 l 13.335008,1.828439 -2.258886,9.090049 C 19.540905,99.745236 9.5382101,99.211356 7.3992191,92.254175 Z"
       id="path26670"
       sodipodi:nodetypes="ccccc" />
    <path
       style="fill:#e3dedb;fill-opacity:1;stroke-width:0.367;stroke-dasharray:none"
       d="m 7.4834351,90.81193 c 4.3607819,-9.528388 7.3241169,-16.082142 7.3241169,-16.082142 3.131771,-6.278019 15.875,-4.060478 15.875,4.233333 L 26.660886,92.254176 C 27.008791,85.47841 12.043981,80.561488 7.4834351,90.81193 Z"
       id="path26307"
       sodipodi:nodetypes="ccccc" />
    <path
       style="fill:#e3dedb;fill-opacity:1;stroke-width:0.366603"
       d="m 13.325889,84.94042 c 2.963335,-5.485316 11.388185,-3.680785 11.517859,3.305616 l -1.430837,3.995596 c -0.832423,-6.145475 -11.978415,-6.008683 -12.444789,-0.04069 0,-1.775216 0.876095,-3.603654 2.357767,-7.260531 z"
       id="path26307-0"
       sodipodi:nodetypes="cccccc" />
    <path
       style="fill:#e3dedb;fill-opacity:1;stroke-width:0.234327"
       d="m 16.289224,86.768859 c 1.524823,-4.355257 4.507659,-3.713233 4.574384,1.833859 l -1.038164,3.615974 c -1.302867,-3.30933 -5.837066,-2.102547 -5.302535,0.02294 -0.171609,-0.345991 0.284654,-1.815892 1.766315,-5.472768 z"
       id="path26307-0-1"
       sodipodi:nodetypes="cccccc" />
    <path
       sodipodi:type="spiral"
       style="display:inline;fill:none;fill-rule:evenodd;stroke:#939393;stroke-width:0.264798;stroke-dasharray:none;stroke-opacity:0.426056"
       id="path26318"
       sodipodi:cx="84.666664"
       sodipodi:cy="16.933332"
       sodipodi:expansion="1"
       sodipodi:revolution="3.0240197"
       sodipodi:radius="7.408329"
       sodipodi:argument="-19.000477"
       sodipodi:t0="0"
       d="m 84.666664,16.933332 c 0.364303,-0.0554 0.254415,0.46374 0.09208,0.605496 -0.439913,0.384149 -1.082403,0.02508 -1.303072,-0.421331 -0.394727,-0.798531 0.160401,-1.709163 0.934744,-2.00065 1.13638,-0.42777 2.346541,0.345526 2.698227,1.448157 0.468743,1.469634 -0.530147,2.987966 -1.96157,3.395805 -1.801301,0.513223 -3.631388,-0.714435 -4.093383,-2.474984 -0.559537,-2.13226 0.898518,-4.275948 2.988397,-4.79096 2.462851,-0.606923 4.92122,1.08247 5.488537,3.501811 0.654991,2.793225 -1.266333,5.566966 -4.015223,6.186114 -3.123464,0.703516 -6.213046,-1.450137 -6.883692,-4.528637 -0.752364,-3.453611 1.633897,-6.859367 5.04205,-7.581269 3.783696,-0.8014475 7.505871,1.817625 8.278847,5.555463 0.07528,0.364032 0.122848,0.733764 0.142385,1.104981"
       transform="matrix(1.4030926,0,0,1.0278746,-102.50784,74.732789)" />
  </g>
</svg>
